# xmcd
#
# Track frame offsets:
#	150
#	15735
#	27824
#	41783
#	54153
#	65043
#	76989
#	89480
#	100300
#	112744
#	128226
#	142483
#	155529
#	168130
#	181131
#	194736
#	207943
#	219964
#	233350
#	245663
#	260167
#	274748
#	287872
#	299853
#	311960
#
# Disc length: 4329
#
# Revision: 1
# Processed by: cddbd v1.5.1PL0 Copyright (c) Steve Scherf et al.
# Submitted via: CDex 1.50
# Normalized: r0:TRMNUM
#
DISCID=8010e719
DTITLE=Nat King Cole - Love Songs
DYEAR=1900
DGENRE=Blues
TTITLE0=Unforgettable
TTITLE1=Dance Ballerina Dance
TTITLE2=It's All In The Game
TTITLE3=Let There Be Love
TTITLE4=St.Louis Blues
TTITLE5=A Beautiful Friendship
TTITLE6=Let's Fall In Love
TTITLE7=Those Lazy Hazy Crazy Days Of Summer
TTITLE8=Pretend
TTITLE9=Mona Lisa
TTITLE10=When I Fall In Love
TTITLE11=Nature Boy
TTITLE12=Ramblin' Rose
TTITLE13=Smile
TTITLE14=Serenata
TTITLE15=Tenderly
TTITLE16=Love Is A Many Splendoured Thing
TTITLE17=Stay As Sweet As You Are
TTITLE18=Love Letters
TTITLE19=The Christmas Song (Merry Christmas To You)
TTITLE20=Stardust (bonus)
TTITLE21=Answer Me (bonus)
TTITLE22=Autumn Leaves (bonus)
TTITLE23=Walkin' My Baby Back Home
TTITLE24=There Goes My Heart
EXTD=
EXTT0=
EXTT1=
EXTT2=
EXTT3=
EXTT4=
EXTT5=
EXTT6=
EXTT7=
EXTT8=
EXTT9=
EXTT10=
EXTT11=
EXTT12=
EXTT13=
EXTT14=
EXTT15=
EXTT16=
EXTT17=
EXTT18=
EXTT19=
EXTT20=
EXTT21=
EXTT22=
EXTT23=
EXTT24=
PLAYORDER=
